# AST/ASF file generated using VICON BodyLanguage
# -----------------------------------------------
:version 1.10
:name VICON
:units
  mass 1.0
  length 0.45
  angle deg
:documentation
   .ast/.asf automatically generated from VICON data using
   VICON BodyBuilder and BodyLanguage model FoxedUp or BRILLIANT.MOD
:root
   order TX TY TZ RX RY RZ
   axis XYZ
   position 0 0 0  
   orientation 0 0 0 
:bonedata
  begin
     id 1 
     name lhipjoint
     direction 0.627457 -0.725269 0.283342 
     length 2.53237 
     axis 0 0 0  XYZ
  end
  begin
     id 2 
     name lfemur
     direction 0.34202 -0.939693 0  
     length 7.32496  
     axis 0 0 20  XYZ
    dof rx ry rz
    limits (-160.0 20.0)
           (-70.0 70.0)
           (-60.0 70.0)
  end
  begin
     id 3 
     name ltibia
     direction 0.34202 -0.939693 0   
     length 7.69674   
     axis 0 0 20   XYZ
    dof rx
    limits (-10.0 170.0)
  end
  begin
     id 4 
     name lfoot
     direction 0.127289 -0.349722 0.928166   
     length 1.8612   
     axis -90 7.62852e-016 20   XYZ
    dof rx rz
    limits (-45.0 90.0)
           (-70.0 20.0)
  end
  begin
     id 5 
     name ltoes
     direction 1.53561e-011 -4.21864e-011 1   
     length 0.925608   
     axis -90 7.62852e-016 20   XYZ
    dof rx
    limits (-90.0 20.0)
  end
  begin
     id 6 
     name rhipjoint
     direction -0.609094 -0.738725 0.288599   
     length 2.48624  
     axis 0 0 0  XYZ 
  end
  begin
     id 7 
     name rfemur
     direction -0.34202 -0.939693 0   
     length 7.44259   
     axis 0 0 -20   XYZ
    dof rx ry rz
    limits (-160.0 20.0)
           (-70.0 70.0)
           (-70.0 60.0)
  end
  begin
     id 8 
     name rtibia
     direction -0.34202 -0.939693 0   
     length 7.7781   
     axis 0 0 -20   XYZ
    dof rx
    limits (-10.0 170.0)
 end
 begin
     id 9 
     name rfoot
     direction -0.107015 -0.294021 0.949789   
     length 2.14741  
     axis -90 -7.62852e-016 -20   XYZ
    dof rx rz
    limits (-45.0 90.0)
           (-20.0 70.0)
  end
  begin
     id 10 
     name rtoes
     direction -1.53497e-011 -4.21924e-011 1   
     length 1.0706   
     axis -90 -7.62852e-016 -20   XYZ
    dof rx
    limits (-90.0 20.0)
  end
  begin
     id 11 
     name lowerback
     direction -0.0142066 0.998112 -0.0597545   
     length 1.86627   
     axis 0 0 0   XYZ
    dof rx ry rz
    limits (-20.0 45.0)
           (-30.0 30.0)
           (-30.0 30.0)
  end
  begin
     id 12 
     name upperback
     direction 0.00547294 0.999744 0.0219437   
     length 1.86272   
     axis 0 0 0   XYZ
    dof rx ry rz
    limits (-20.0 45.0)
           (-30.0 30.0)
           (-30.0 30.0)
  end
  begin
     id 13 
     name thorax
     direction 0.0116162 0.998704 0.0495538   
     length 1.8703   
     axis 0 0 0   XYZ
    dof rx ry rz
    limits (-20.0 45.0)
           (-30.0 30.0)
           (-30.0 30.0)
  end
  begin
     id 14 
     name lowerneck
     direction -0.0106574 0.998739 0.0490586   
     length 1.8074   
     axis 0 0 0   XYZ
    dof rx ry rz
    limits (-20.0 45.0)
           (-30.0 30.0)
           (-30.0 30.0)
  end
  begin
     id 15 
     name upperneck
     direction 0.030527 0.976587 -0.212944   
     length 1.80681   
     axis 0 0 0   XYZ
    dof rx ry rz
    limits (-20.0 45.0)
           (-30.0 30.0)
           (-30.0 30.0)
  end
  begin
     id 16
     name head
     direction 0.00869225 0.997035 -0.0764531  
     length 1.8313  
     axis 0 0 0   XYZ
    dof rx ry rz
    limits (-20.0 45.0)
           (-30.0 30.0)
           (-30.0 30.0)
  end
  begin
     id 17 
     name lclavicle
     direction 0.915958 0.399447 0.0382386  
     length 3.78965  
     axis 0 0 0   XYZ
    dof ry rz
    limits (-20.0 10.0)
           (0.0 20.0)
  end
  begin
     id 18 
     name lhumerus
     direction 1 -4.48967e-011 3.19303e-027   
     length 4.78095   
     axis -180 -30 -90   XYZ
    dof rx ry rz
    limits (-60.0 90.0)
           (-90.0 90.0)
           (-90.0 90.0)
  end
  begin
     id 19
     name lradius
     direction 1 -4.48967e-011 -3.77974e-027   
     length 3.58615   
     axis -180 -30 -90   XYZ
    dof rx
    limits (-10.0 170.0)
  end
  begin
     id 20
     name lwrist
     direction 1 -4.48927e-011 1.2807e-027   
     length 1.79307   
     axis 1.91374e-015 90 90   XYZ
    dof ry
    limits (-180.0 0.0)
 end
  begin
     id 21 
     name lhand
     direction 1 -4.49036e-011 2.5614e-027   
     length 0.659812   
     axis -1.63439e-015 90 90   XYZ
    dof rx rz
    limits (-90.0 90.0)
           (-45.0 45.0)
  end
  begin
     id 22 
     name lfingers
     direction 1 -4.49052e-011 5.1228e-027   
     length 0.531957   
     axis -3.26879e-015 90 90   XYZ
    dof rx
    limits (0.0 90.0)
  end
  begin
     id 23
     name lthumb
     direction 0.707107 -6.35012e-011 0.707107   
     length 0.763787   
     axis -90 45 2.85299e-015   XYZ
    dof rx rz
    limits (-45.0 45.0)
           (-45.0 45.0)
  end
  begin
     id 24 
     name rclavicle
     direction -0.895351 0.435135 0.0948887   
     length 3.70497  
     axis 0 0 0   XYZ 
    dof ry rz
    limits (-10.0 20.0)
           (-20.0 0.0)
  end
  begin
     id 25 
     name rhumerus
     direction -1 -4.48971e-011 2.38946e-027  
     length 4.48913   
     axis -180 30 90   XYZ
    dof rx ry rz
    limits (-90.0 60.0)
           (-90.0 90.0)
           (-90.0 90.0)
  end
  begin
     id 26 
     name rradius
     direction -1 -4.4895e-011 4.38668e-027   
     length 3.7051   
     axis -180 30 90   XYZ
    dof rx
    limits (-10.0 170.0)
  end
  begin
     id 27 
     name rwrist
     direction -1 -4.49007e-011 1.2807e-027   
     length 1.85255   
     axis 1.91374e-015 -90 -90   XYZ
    dof ry
    limits (-180.0 0.0)
  end
  begin
     id 28
     name rhand
     direction -1 -4.48851e-011 2.5614e-027   
     length 0.449136   
     axis -1.63439e-015 -90 -90   XYZ
    dof rx rz
    limits (-90.0 90.0)
           (-45.0 45.0)
  end
  begin
     id 29
     name rfingers
     direction -1 -4.49128e-011 5.1228e-027   
     length 0.362105   
     axis -3.26879e-015 -90 -90   XYZ
    dof rx
    limits (0.0 90.0)
  end
  begin
     id 30
     name rthumb
     direction -0.707107 -6.34851e-011 0.707107   
     length 0.519912   
     axis -90 -45 -2.85299e-015   XYZ
    dof rx rz
    limits (-45.0 45.0)
           (-45.0 45.0)
  end
:hierarchy
  begin
    root lhipjoint rhipjoint lowerback
    lhipjoint lfemur
    lfemur ltibia
    ltibia lfoot
    lfoot ltoes
    rhipjoint rfemur
    rfemur rtibia
    rtibia rfoot
    rfoot rtoes
    lowerback upperback
    upperback thorax
    thorax lowerneck lclavicle rclavicle
    lowerneck upperneck
    upperneck head
    lclavicle lhumerus
    lhumerus lradius
    lradius lwrist
    lwrist lhand lthumb
    lhand lfingers
    rclavicle rhumerus
    rhumerus rradius
    rradius rwrist
    rwrist rhand rthumb
    rhand rfingers
  end

#!OML:ASF I:\Actors\actors\Patient Classification 2\Patient 1\Session 1\actor1.ASF
:FULLY-SPECIFIED
:DEGREES
47
root -0.715527 18.5839 6.00741 -1.03591 -1.42934 -6.09204
lowerback 8.54118 0.583646 3.11343
upperback -2.27443 1.24166 1.58644
thorax -7.16512 0.510015 -0.264185
lowerneck -12.516 -1.94597 -1.94131
upperneck 26.0852 -3.27137 3.51269
head 10.5037 -1.28391 1.1686
rclavicle 8.63471e-016 -2.16675e-014
rhumerus -46.0272 -2.07195 -89.7416
rradius 40.0385
rwrist 22.4307
rhand -1.75648 -33.3211
rfingers 7.12502
rthumb 23.9069 -61.853
lclavicle 8.63471e-016 -2.16675e-014
lhumerus -41.7332 3.73748 90.9957
lradius 36.6245
lwrist -13.4324
lhand -2.35053 -23.8457
lfingers 7.12502
lthumb 23.3371 4.75968
rfemur 10.5692 1.65258 20.1753
rtibia 3.18055e-015
rfoot -16.6061 -11.9229
rtoes -14.4762
lfemur -4.22723 -3.62548 -7.94248
ltibia 26.7259
lfoot -22.7978 8.23254
ltoes -57.243
48
root -0.714865 18.5832 6.00732 -1.0377 -1.44838 -6.0847
lowerback 8.53448 0.582768 3.12364
upperback -2.26752 1.24096 1.5846
thorax -7.15367 0.509386 -0.271645
lowerneck -12.531 -1.92335 -1.9376
upperneck 26.1057 -3.24956 3.54498
head 10.514 -1.26936 1.18231
rclavicle -1.65116e-014 2.08724e-014
rhumerus -46.0423 -2.04 -89.7496
rradius 40.0497
rwrist 22.4418
rhand -1.77222 -33.2474
rfingers 7.12502
rthumb 23.8919 -61.7813
lclavicle -1.65116e-014 2.08724e-014
lhumerus -41.7338 3.77679 90.9777
lradius 36.6115
lwrist -13.4314
lhand -2.29267 -23.881
lfingers 7.12502
lthumb 23.3927 4.71731
rfemur 10.5674 1.67206 20.166
rtibia 4.29375e-014
rfoot -16.5777 -11.9553
rtoes -14.592
lfemur -4.21326 -3.63012 -7.9563
ltibia 26.7196
lfoot -22.8012 8.21073
ltoes -57.2131
49
root -0.714318 18.5828 6.00757 -1.03386 -1.47009 -6.08102
lowerback 8.5114 0.598986 3.15563
upperback -2.2674 1.26381 1.56511
thorax -7.13859 0.518924 -0.31308
lowerneck -12.5037 -1.92352 -1.91825
upperneck 26.1186 -3.261 3.56633
head 10.5139 -1.27035 1.18548
rclavicle 1.8928e-014 3.97569e-016
rhumerus -46.0485 -2.06397 -89.7632
rradius 40.0492
rwrist 22.4482
rhand -1.75718 -33.2662
rfingers 7.12502
rthumb 23.9063 -61.7981
lclavicle 1.8928e-014 3.97569e-016
lhumerus -41.7503 3.74161 90.9682
lradius 36.612
lwrist -13.4234
lhand -2.24125 -23.9507
lfingers 7.12502
lthumb 23.442 4.64133
rfemur 10.5589 1.69424 20.1596
rtibia -6.04305e-014
rfoot -16.5695 -11.9786
rtoes -14.6779
lfemur -4.20652 -3.63047 -7.96477
ltibia 26.711
lfoot -22.7951 8.1951
ltoes -57.1903
50
root -0.71449 18.5821 6.00775 -1.03155 -1.48168 -6.09018
lowerback 8.492 0.611029 3.18237
upperback -2.26424 1.28117 1.55458
thorax -7.12282 0.526257 -0.34137
lowerneck -12.5063 -1.93118 -1.90111
upperneck 26.1518 -3.27652 3.56376
head 10.5269 -1.2757 1.17984
rclavicle 1.60705e-014 1.78906e-014
rhumerus -46.0316 -2.09579 -89.7809
rradius 40.0136
rwrist 22.3875
rhand -1.70658 -33.416
rfingers 7.12502
rthumb 23.9548 -61.9416
lclavicle 1.60705e-014 1.78906e-014
lhumerus -41.7382 3.72507 90.9584
lradius 36.5973
lwrist -13.4346
lhand -2.2333 -23.975
lfingers 7.12502
lthumb 23.4496 4.61602
rfemur 10.559 1.70582 20.1678
rtibia -2.22639e-014
rfoot -16.5899 -11.9435
rtoes -14.5236
lfemur -4.20025 -3.60846 -7.9533
ltibia 26.7038
lfoot -22.7947 8.21735
ltoes -57.233
51
root -0.714432 18.5823 6.00807 -1.03149 -1.47892 -6.09171
lowerback 8.48509 0.612012 3.18058
upperback -2.26324 1.28278 1.56697
thorax -7.11807 0.5275 -0.327488
lowerneck -12.5367 -1.93183 -1.96607
upperneck 26.2049 -3.27933 3.62126
head 10.5547 -1.27573 1.21129
rclavicle -9.79636e-015 -1.66979e-014
rhumerus -46.0458 -2.09112 -89.7756
rradius 39.9868
rwrist 22.3073
rhand -1.66949 -33.6501
rfingers 7.12502
rthumb 23.9904 -62.171
lclavicle -9.79636e-015 -1.66979e-014
lhumerus -41.7289 3.73839 90.9745
lradius 36.5837
lwrist -13.4177
lhand -2.27329 -23.9962
lfingers 7.12502
lthumb 23.4113 4.59977
rfemur 10.5662 1.70335 20.1668
rtibia 4.77083e-015
rfoot -16.6077 -11.8926
rtoes -14.2916
lfemur -4.19478 -3.61466 -7.95201
ltibia 26.699
lfoot -22.831 8.22917
ltoes -57.1984
